<svg width="35" height="33" viewBox="0 0 35 33" fill="none" xmlns="http://www.w3.org/2000/svg">
<path d="M10.1449 33C9.21498 33 8.41916 32.6771 7.75749 32.0314C7.09469 31.3846 6.76328 30.6075 6.76328 29.7C6.76328 28.7925 7.09469 28.0153 7.75749 27.3685C8.41916 26.7228 9.21498 26.4 10.1449 26.4C11.0749 26.4 11.8707 26.7228 12.5324 27.3685C13.1952 28.0153 13.5266 28.7925 13.5266 29.7C13.5266 30.6075 13.1952 31.3846 12.5324 32.0314C11.8707 32.6771 11.0749 33 10.1449 33ZM27.0531 33C26.1232 33 25.3274 32.6771 24.6657 32.0314C24.0029 31.3846 23.6715 30.6075 23.6715 29.7C23.6715 28.7925 24.0029 28.0153 24.6657 27.3685C25.3274 26.7228 26.1232 26.4 27.0531 26.4C27.9831 26.4 28.7795 26.7228 29.4423 27.3685C30.1039 28.0153 30.4348 28.7925 30.4348 29.7C30.4348 30.6075 30.1039 31.3846 29.4423 32.0314C28.7795 32.6771 27.9831 33 27.0531 33ZM8.70773 6.6L12.7657 14.85H24.6014L29.2512 6.6H8.70773ZM4.43841 24.75L9.4686 15.84L3.38164 3.3H0V0H5.49517L7.10145 3.3H35L26.5882 18.15H12.0048L10.1449 21.45H30.4348V24.75H4.43841Z" fill="black"/>
</svg>
