<svg width="410" height="90" viewBox="0 0 410 90" fill="none" xmlns="http://www.w3.org/2000/svg">
<rect x="0.878906" y="0.704834" width="409" height="88.5902" rx="10" fill="white"/>
<path d="M15.7871 6.79272H395.789C400.76 6.79272 404.789 10.8222 404.789 15.7927V74.207C404.789 79.1775 400.76 83.207 395.789 83.207H15.7871C10.8165 83.207 6.78711 79.1775 6.78711 74.207V15.7927C6.78711 10.8222 10.8165 6.79272 15.7871 6.79272Z" stroke="#2B2C2D" stroke-width="2"/>
<path d="M21.5337 23.7711C22.3337 23.7711 22.9443 23.9178 23.3657 24.2111C23.7923 24.5044 24.0057 24.9524 24.0057 25.5551C24.0057 26.3071 23.635 26.8164 22.8937 27.0831C22.995 27.2058 23.1097 27.3551 23.2377 27.5311C23.3657 27.7071 23.4963 27.8991 23.6297 28.1071C23.763 28.3098 23.891 28.5204 24.0137 28.7391C24.1363 28.9524 24.2457 29.1631 24.3417 29.3711H23.2137C23.1123 29.1791 23.003 28.9871 22.8857 28.7951C22.7683 28.5978 22.6483 28.4084 22.5257 28.2271C22.4083 28.0404 22.291 27.8671 22.1737 27.7071C22.0563 27.5418 21.947 27.3951 21.8457 27.2671C21.771 27.2724 21.707 27.2751 21.6537 27.2751C21.6003 27.2751 21.5497 27.2751 21.5017 27.2751H21.0137V29.3711H20.0057V23.9071C20.251 23.8538 20.5123 23.8191 20.7897 23.8031C21.067 23.7818 21.315 23.7711 21.5337 23.7711ZM21.6057 24.6431C21.3923 24.6431 21.195 24.6511 21.0137 24.6671V26.4591H21.4537C21.699 26.4591 21.915 26.4458 22.1017 26.4191C22.2883 26.3924 22.443 26.3444 22.5657 26.2751C22.6937 26.2058 22.7897 26.1124 22.8537 25.9951C22.9177 25.8778 22.9497 25.7284 22.9497 25.5471C22.9497 25.3764 22.9177 25.2324 22.8537 25.1151C22.7897 24.9978 22.6963 24.9044 22.5737 24.8351C22.4563 24.7658 22.315 24.7178 22.1497 24.6911C21.9843 24.6591 21.803 24.6431 21.6057 24.6431Z" fill="black"/>
<path d="M20.0057 42.459V36.915H23.5657V37.771H21.0137V39.139H23.2857V39.979H21.0137V41.603H23.7577V42.459H20.0057Z" fill="black"/>
<path d="M22.5977 49.945C22.027 49.945 21.5897 50.1237 21.2857 50.481C20.987 50.833 20.8377 51.3237 20.8377 51.953C20.8377 52.2517 20.8723 52.5263 20.9417 52.777C21.0163 53.0223 21.123 53.233 21.2617 53.409C21.4057 53.585 21.5817 53.7237 21.7897 53.825C22.003 53.921 22.251 53.969 22.5337 53.969C22.7097 53.969 22.8617 53.9637 22.9897 53.953C23.1177 53.937 23.219 53.9183 23.2937 53.897V51.905H24.3017V54.569C24.163 54.6223 23.9283 54.681 23.5977 54.745C23.267 54.809 22.8857 54.841 22.4537 54.841C22.0537 54.841 21.6883 54.777 21.3577 54.649C21.027 54.521 20.7443 54.3343 20.5097 54.089C20.2803 53.8437 20.1017 53.5423 19.9737 53.185C19.8457 52.8277 19.7817 52.417 19.7817 51.953C19.7817 51.489 19.851 51.0783 19.9897 50.721C20.1337 50.3637 20.3283 50.0623 20.5737 49.817C20.819 49.5663 21.107 49.377 21.4377 49.249C21.7683 49.121 22.1203 49.057 22.4937 49.057C22.7497 49.057 22.9763 49.0757 23.1737 49.113C23.3763 49.145 23.5497 49.1823 23.6937 49.225C23.8377 49.2677 23.955 49.313 24.0457 49.361C24.1417 49.409 24.2083 49.4437 24.2457 49.465L23.9417 50.289C23.7817 50.193 23.5817 50.113 23.3417 50.049C23.107 49.9797 22.859 49.945 22.5977 49.945Z" fill="black"/>
<path d="M20.8297 63.4052C20.8297 63.7092 20.867 63.9865 20.9417 64.2372C21.0163 64.4825 21.123 64.6932 21.2617 64.8692C21.4057 65.0398 21.579 65.1732 21.7817 65.2692C21.9843 65.3652 22.2137 65.4132 22.4697 65.4132C22.7203 65.4132 22.947 65.3652 23.1497 65.2692C23.3523 65.1732 23.523 65.0398 23.6617 64.8692C23.8057 64.6932 23.915 64.4825 23.9897 64.2372C24.0643 63.9865 24.1017 63.7092 24.1017 63.4052C24.1017 63.1012 24.0643 62.8265 23.9897 62.5812C23.915 62.3305 23.8057 62.1198 23.6617 61.9492C23.523 61.7732 23.3523 61.6372 23.1497 61.5412C22.947 61.4452 22.7203 61.3972 22.4697 61.3972C22.2137 61.3972 21.9843 61.4452 21.7817 61.5412C21.579 61.6372 21.4057 61.7732 21.2617 61.9492C21.123 62.1252 21.0163 62.3358 20.9417 62.5812C20.867 62.8265 20.8297 63.1012 20.8297 63.4052ZM25.1577 63.4052C25.1577 63.8798 25.0857 64.2985 24.9417 64.6612C24.803 65.0238 24.611 65.3278 24.3657 65.5732C24.1257 65.8132 23.843 65.9945 23.5177 66.1172C23.1923 66.2398 22.8457 66.3012 22.4777 66.3012C22.1097 66.3012 21.7603 66.2398 21.4297 66.1172C21.1043 65.9945 20.819 65.8132 20.5737 65.5732C20.3337 65.3278 20.1417 65.0238 19.9977 64.6612C19.8537 64.2985 19.7817 63.8798 19.7817 63.4052C19.7817 62.9305 19.8537 62.5145 19.9977 62.1572C20.1417 61.7945 20.3363 61.4905 20.5817 61.2452C20.8323 60.9998 21.1203 60.8158 21.4457 60.6932C21.771 60.5705 22.115 60.5092 22.4777 60.5092C22.8403 60.5092 23.1843 60.5705 23.5097 60.6932C23.835 60.8158 24.1177 60.9998 24.3577 61.2452C24.603 61.4905 24.7977 61.7945 24.9417 62.1572C25.0857 62.5145 25.1577 62.9305 25.1577 63.4052Z" fill="black"/>
<path d="M21.2383 19.0864C23.4474 19.0864 25.2383 17.2956 25.2383 15.0864C25.2383 12.8773 23.4474 11.0864 21.2383 11.0864C19.0291 11.0864 17.2383 12.8773 17.2383 15.0864C17.2383 17.2956 19.0291 19.0864 21.2383 19.0864Z" fill="black"/>
<path d="M21.2383 77.916C23.4474 77.916 25.2383 76.1252 25.2383 73.916C25.2383 71.7069 23.4474 69.916 21.2383 69.916C19.0291 69.916 17.2383 71.7069 17.2383 73.916C17.2383 76.1252 19.0291 77.916 21.2383 77.916Z" fill="black"/>
<path d="M388.521 19.0864C390.731 19.0864 392.521 17.2956 392.521 15.0864C392.521 12.8773 390.731 11.0864 388.521 11.0864C386.312 11.0864 384.521 12.8773 384.521 15.0864C384.521 17.2956 386.312 19.0864 388.521 19.0864Z" fill="black"/>
<path d="M388.521 77.916C390.731 77.916 392.521 76.1252 392.521 73.916C392.521 71.7069 390.731 69.916 388.521 69.916C386.312 69.916 384.521 71.7069 384.521 73.916C384.521 76.1252 386.312 77.916 388.521 77.916Z" fill="black"/>
<path d="M105.492 19.0864C107.701 19.0864 109.492 17.2956 109.492 15.0864C109.492 12.8773 107.701 11.0864 105.492 11.0864C103.283 11.0864 101.492 12.8773 101.492 15.0864C101.492 17.2956 103.283 19.0864 105.492 19.0864Z" fill="black"/>
<path d="M291.18 19.0864C293.389 19.0864 295.18 17.2956 295.18 15.0864C295.18 12.8773 293.389 11.0864 291.18 11.0864C288.971 11.0864 287.18 12.8773 287.18 15.0864C287.18 17.2956 288.971 19.0864 291.18 19.0864Z" fill="black"/>
<path d="M118.58 19.0864C120.789 19.0864 122.58 17.2956 122.58 15.0864C122.58 12.8773 120.789 11.0864 118.58 11.0864C116.371 11.0864 114.58 12.8773 114.58 15.0864C114.58 17.2956 116.371 19.0864 118.58 19.0864Z" fill="black"/>
<path d="M304.268 19.0864C306.477 19.0864 308.268 17.2956 308.268 15.0864C308.268 12.8773 306.477 11.0864 304.268 11.0864C302.058 11.0864 300.268 12.8773 300.268 15.0864C300.268 17.2956 302.058 19.0864 304.268 19.0864Z" fill="black"/>
</svg>
