<svg width="33" height="33" viewBox="0 0 33 33" fill="none" xmlns="http://www.w3.org/2000/svg">
<path d="M16.5 0C18.688 0 20.7865 0.869194 22.3336 2.41637C23.8808 3.96354 24.75 6.06196 24.75 8.25C24.75 10.438 23.8808 12.5365 22.3336 14.0836C20.7865 15.6308 18.688 16.5 16.5 16.5C14.312 16.5 12.2135 15.6308 10.6664 14.0836C9.11919 12.5365 8.25 10.438 8.25 8.25C8.25 6.06196 9.11919 3.96354 10.6664 2.41637C12.2135 0.869194 14.312 0 16.5 0ZM16.5 4.125C15.406 4.125 14.3568 4.5596 13.5832 5.33318C12.8096 6.10677 12.375 7.15598 12.375 8.25C12.375 9.34402 12.8096 10.3932 13.5832 11.1668C14.3568 11.9404 15.406 12.375 16.5 12.375C17.594 12.375 18.6432 11.9404 19.4168 11.1668C20.1904 10.3932 20.625 9.34402 20.625 8.25C20.625 7.15598 20.1904 6.10677 19.4168 5.33318C18.6432 4.5596 17.594 4.125 16.5 4.125ZM16.5 18.5625C22.0069 18.5625 33 21.3056 33 26.8125V33H0V26.8125C0 21.3056 10.9931 18.5625 16.5 18.5625ZM16.5 22.4812C10.3744 22.4812 3.91875 25.4925 3.91875 26.8125V29.0813H29.0813V26.8125C29.0813 25.4925 22.6256 22.4812 16.5 22.4812Z" fill="black"/>
</svg>
