<svg width="44" height="29" viewBox="0 0 44 29" fill="none" xmlns="http://www.w3.org/2000/svg">
<path fill-rule="evenodd" clip-rule="evenodd" d="M41.0667 25.3427V3.27978H2.93333V25.3427H41.0667ZM44 3.27978V25.3427C44 26.1787 43.691 26.9803 43.1408 27.5714C42.5907 28.1625 41.8446 28.4946 41.0667 28.4946H2.93333C2.15536 28.4946 1.40926 28.1625 0.859153 27.5714C0.309047 26.9803 0 26.1787 0 25.3427V3.27978C0 2.44386 0.309047 1.64217 0.859153 1.05109C1.40926 0.459999 2.15536 0.12793 2.93333 0.12793H41.0667C41.8446 0.12793 42.5907 0.459999 43.1408 1.05109C43.691 1.64217 44 2.44386 44 3.27978ZM5.86667 7.21959C5.86667 7.01061 5.94393 6.81019 6.08146 6.66242C6.21898 6.51465 6.40551 6.43163 6.6 6.43163H16.8667C17.0612 6.43163 17.2477 6.51465 17.3852 6.66242C17.5227 6.81019 17.6 7.01061 17.6 7.21959V21.4029C17.6 21.6119 17.5227 21.8123 17.3852 21.9601C17.2477 22.1079 17.0612 22.1909 16.8667 22.1909H6.6C6.40551 22.1909 6.21898 22.1079 6.08146 21.9601C5.94393 21.8123 5.86667 21.6119 5.86667 21.4029V7.21959ZM22 12.7353C21.611 12.7353 21.238 12.9014 20.9629 13.1969C20.6879 13.4925 20.5333 13.8933 20.5333 14.3113C20.5333 14.7292 20.6879 15.1301 20.9629 15.4256C21.238 15.7212 21.611 15.8872 22 15.8872H30.8C31.189 15.8872 31.562 15.7212 31.8371 15.4256C32.1121 15.1301 32.2667 14.7292 32.2667 14.3113C32.2667 13.8933 32.1121 13.4925 31.8371 13.1969C31.562 12.9014 31.189 12.7353 30.8 12.7353H22ZM20.5333 20.615C20.5333 20.197 20.6879 19.7962 20.9629 19.5006C21.238 19.2051 21.611 19.039 22 19.039H36.6667C37.0557 19.039 37.4287 19.2051 37.7038 19.5006C37.9788 19.7962 38.1333 20.197 38.1333 20.615C38.1333 21.0329 37.9788 21.4338 37.7038 21.7293C37.4287 22.0249 37.0557 22.1909 36.6667 22.1909H22C21.611 22.1909 21.238 22.0249 20.9629 21.7293C20.6879 21.4338 20.5333 21.0329 20.5333 20.615ZM22 6.43163C21.611 6.43163 21.238 6.59767 20.9629 6.89321C20.6879 7.18875 20.5333 7.5896 20.5333 8.00756C20.5333 8.42552 20.6879 8.82636 20.9629 9.12191C21.238 9.41745 21.611 9.58348 22 9.58348H33.7333C34.1223 9.58348 34.4954 9.41745 34.7704 9.12191C35.0455 8.82636 35.2 8.42552 35.2 8.00756C35.2 7.5896 35.0455 7.18875 34.7704 6.89321C34.4954 6.59767 34.1223 6.43163 33.7333 6.43163H22Z" fill="white"/>
</svg>
