<svg width="23" height="23" viewBox="0 0 23 23" fill="none" xmlns="http://www.w3.org/2000/svg">
<path d="M20.4842 22.2878L12.7842 14.5878C12.1731 15.0767 11.4703 15.4638 10.6759 15.749C9.88142 16.0341 9.03605 16.1767 8.13976 16.1767C5.91939 16.1767 4.04042 15.408 2.50287 13.8704C0.964498 12.332 0.195312 10.4527 0.195312 8.23229C0.195312 6.01192 0.964498 4.13255 2.50287 2.59418C4.04042 1.05662 5.91939 0.287842 8.13976 0.287842C10.3601 0.287842 12.2395 1.05662 13.7779 2.59418C15.3154 4.13255 16.0842 6.01192 16.0842 8.23229C16.0842 9.12858 15.9416 9.97395 15.6564 10.7684C15.3712 11.5628 14.9842 12.2656 14.4953 12.8767L22.1953 20.5767L20.4842 22.2878ZM8.13976 13.7323C9.66753 13.7323 10.9663 13.1978 12.0362 12.1287C13.1052 11.0589 13.6398 9.76006 13.6398 8.23229C13.6398 6.70451 13.1052 5.40569 12.0362 4.33584C10.9663 3.2668 9.66753 2.73229 8.13976 2.73229C6.61198 2.73229 5.31316 3.2668 4.24331 4.33584C3.17428 5.40569 2.63976 6.70451 2.63976 8.23229C2.63976 9.76006 3.17428 11.0589 4.24331 12.1287C5.31316 13.1978 6.61198 13.7323 8.13976 13.7323Z" fill="white"/>
</svg>
