<svg width="35" height="33" viewBox="0 0 35 33" fill="none" xmlns="http://www.w3.org/2000/svg">
<path d="M6.16374 28.7742V29.8482C6.16374 30.7005 5.89615 31.4165 5.36096 31.9961C4.82578 32.5757 4.14893 32.8655 3.33041 32.8655C2.54337 32.8655 1.87407 32.5669 1.32252 31.9695C0.770964 31.3722 0.495815 30.648 0.497075 29.797V14.4545L4.46374 2.18044C4.65263 1.56674 4.99074 1.07237 5.47807 0.697326C5.96541 0.322286 6.50878 0.134766 7.10819 0.134766H27.886C28.4841 0.134766 29.0275 0.322286 29.5161 0.697326C30.0047 1.07237 30.3428 1.56674 30.5304 2.18044L34.4971 14.4545V29.8482C34.4971 30.7005 34.2295 31.4165 33.6943 31.9961C33.1591 32.5757 32.4823 32.8655 31.6637 32.8655C30.8767 32.8655 30.208 32.5669 29.6577 31.9695C29.1074 31.3722 28.8317 30.648 28.8304 29.797V28.7742H6.16374ZM5.78596 10.3631H29.2082L27.2248 4.22611H7.7693L5.78596 10.3631ZM8.99707 22.6372C9.78411 22.6372 10.4534 22.3385 11.005 21.7412C11.5565 21.1438 11.8317 20.4197 11.8304 19.5687C11.8304 18.7163 11.5546 17.9914 11.0031 17.3941C10.4515 16.7968 9.78285 16.4988 8.99707 16.5001C8.21004 16.5001 7.54074 16.7988 6.98918 17.3962C6.43763 17.9935 6.16248 18.7177 6.16374 19.5687C6.16374 20.421 6.43952 21.1459 6.99107 21.7432C7.54263 22.3405 8.2113 22.6385 8.99707 22.6372ZM25.9971 22.6372C26.7841 22.6372 27.4534 22.3385 28.005 21.7412C28.5565 21.1438 28.8317 20.4197 28.8304 19.5687C28.8304 18.7163 28.5546 17.9914 28.0031 17.3941C27.4515 16.7968 26.7828 16.4988 25.9971 16.5001C25.21 16.5001 24.5407 16.7988 23.9892 17.3962C23.4376 17.9935 23.1625 18.7177 23.1637 19.5687C23.1637 20.421 23.4395 21.1459 23.9911 21.7432C24.5426 22.3405 25.2113 22.6385 25.9971 22.6372ZM4.27485 24.6828H30.7193V14.4545H4.27485V24.6828Z" fill="white"/>
</svg>
