<svg width="24" height="21" viewBox="0 0 24 21" fill="none" xmlns="http://www.w3.org/2000/svg">
<path d="M6.69392 21C6.08031 21 5.55521 20.7945 5.11862 20.3836C4.68128 19.972 4.46261 19.4775 4.46261 18.9C4.46261 18.3225 4.68128 17.8279 5.11862 17.4163C5.55521 17.0054 6.08031 16.8 6.69392 16.8C7.30753 16.8 7.83263 17.0054 8.26922 17.4163C8.70656 17.8279 8.92522 18.3225 8.92522 18.9C8.92522 19.4775 8.70656 19.972 8.26922 20.3836C7.83263 20.7945 7.30753 21 6.69392 21ZM17.8504 21C17.2368 21 16.7117 20.7945 16.2751 20.3836C15.8378 19.972 15.6191 19.4775 15.6191 18.9C15.6191 18.3225 15.8378 17.8279 16.2751 17.4163C16.7117 17.0054 17.2368 16.8 17.8504 16.8C18.4641 16.8 18.9895 17.0054 19.4269 17.4163C19.8635 17.8279 20.0818 18.3225 20.0818 18.9C20.0818 19.4775 19.8635 19.972 19.4269 20.3836C18.9895 20.7945 18.4641 21 17.8504 21ZM5.74561 4.2L8.42318 9.45H16.2328L19.3008 4.2H5.74561ZM2.92859 15.75L6.24766 10.08L2.23131 2.1H0V0H3.62587L4.68574 2.1H23.094L17.5436 11.55H7.92114L6.69392 13.65H20.0818V15.75H2.92859Z" fill="white"/>
</svg>
