<svg width="23" height="21" viewBox="0 0 23 21" fill="none" xmlns="http://www.w3.org/2000/svg">
<path d="M6.66667 21C6.05556 21 5.53259 20.7945 5.09778 20.3836C4.66222 19.972 4.44444 19.4775 4.44444 18.9C4.44444 18.3225 4.66222 17.8279 5.09778 17.4163C5.53259 17.0054 6.05556 16.8 6.66667 16.8C7.27778 16.8 7.80074 17.0054 8.23555 17.4163C8.67111 17.8279 8.88889 18.3225 8.88889 18.9C8.88889 19.4775 8.67111 19.972 8.23555 20.3836C7.80074 20.7945 7.27778 21 6.66667 21ZM17.7778 21C17.1667 21 16.6437 20.7945 16.2089 20.3836C15.7733 19.972 15.5556 19.4775 15.5556 18.9C15.5556 18.3225 15.7733 17.8279 16.2089 17.4163C16.6437 17.0054 17.1667 16.8 17.7778 16.8C18.3889 16.8 18.9122 17.0054 19.3478 17.4163C19.7826 17.8279 20 18.3225 20 18.9C20 19.4775 19.7826 19.972 19.3478 20.3836C18.9122 20.7945 18.3889 21 17.7778 21ZM5.72222 4.2L8.38889 9.45H16.1667L19.2222 4.2H5.72222ZM2.91667 15.75L6.22222 10.08L2.22222 2.1H0V0H3.61111L4.66667 2.1H23L17.4722 11.55H7.88889L6.66667 13.65H20V15.75H2.91667Z" fill="#28A5D8"/>
</svg>
