<svg width="21" height="31" viewBox="0 0 21 31" fill="none" xmlns="http://www.w3.org/2000/svg">
<path d="M4.03248 13.3081C4.03248 12.2201 4.27782 11.2441 4.76848 10.3801C5.25915 9.50542 5.92582 8.82276 6.76848 8.33209C7.62182 7.84142 8.56582 7.59609 9.60048 7.59609C10.8165 7.59609 11.8778 7.88942 12.7845 8.47609C13.6911 9.06276 14.3525 9.89476 14.7685 10.9721H13.0245C12.7151 10.3001 12.2671 9.78276 11.6805 9.42009C11.1045 9.05742 10.4111 8.87609 9.60048 8.87609C8.82182 8.87609 8.12315 9.05742 7.50448 9.42009C6.88582 9.78276 6.40048 10.3001 6.04848 10.9721C5.69648 11.6334 5.52048 12.4121 5.52048 13.3081C5.52048 14.1934 5.69648 14.9721 6.04848 15.6441C6.40048 16.3054 6.88582 16.8174 7.50448 17.1801C8.12315 17.5428 8.82182 17.7241 9.60048 17.7241C10.4111 17.7241 11.1045 17.5481 11.6805 17.1961C12.2671 16.8334 12.7151 16.3161 13.0245 15.6441H14.7685C14.3525 16.7108 13.6911 17.5374 12.7845 18.1241C11.8778 18.7001 10.8165 18.9881 9.60048 18.9881C8.56582 18.9881 7.62182 18.7481 6.76848 18.2681C5.92582 17.7774 5.25915 17.1001 4.76848 16.2361C4.27782 15.3721 4.03248 14.3961 4.03248 13.3081Z" fill="white" fill-opacity="0.48"/>
<path d="M19.5672 13.196C19.5672 18.5963 15.2885 22.955 10.0336 22.955C4.77876 22.955 0.5 18.5963 0.5 13.196C0.5 7.79573 4.77876 3.43701 10.0336 3.43701C15.2885 3.43701 19.5672 7.79573 19.5672 13.196Z" stroke="white" stroke-opacity="0.75"/>
</svg>
