<svg width="39" height="41" viewBox="0 0 39 41" fill="none" xmlns="http://www.w3.org/2000/svg">
<rect y="0.000976562" width="39" height="41" rx="4" fill="white"/>
<path d="M26.6276 10.701C25.4941 9.40035 24.8694 7.73003 24.8699 6.00098H19.7462V26.6676C19.7067 27.786 19.2369 28.8453 18.4358 29.6225C17.6348 30.3997 16.5649 30.8342 15.4515 30.8343C13.0969 30.8343 11.1403 28.901 11.1403 26.501C11.1403 23.6343 13.8929 21.4843 16.7283 22.3676V17.101C11.0077 16.3343 6 20.801 6 26.501C6 32.051 10.5765 36.001 15.4349 36.001C20.6416 36.001 24.8699 31.751 24.8699 26.501V16.0176C26.9476 17.5174 29.4421 18.3221 32 18.3176V13.1676C32 13.1676 28.8827 13.3176 26.6276 10.701Z" fill="#393939"/>
</svg>
