<svg width="60" height="41" viewBox="0 0 60 41" fill="none" xmlns="http://www.w3.org/2000/svg">
<path d="M58.7342 6.40151C58.3927 5.16323 57.7242 4.0342 56.7953 3.12744C55.8665 2.22068 54.71 1.56798 53.4416 1.23467C48.7704 0.000488655 30 0.000488281 30 0.000488281C30 0.000488281 11.2296 0.000488655 6.5584 1.23467C5.28998 1.56798 4.13349 2.22068 3.20466 3.12744C2.27583 4.0342 1.60725 5.16323 1.26583 6.40151C0.393617 11.0522 -0.0296437 15.7726 0.00161228 20.5005C-0.0296437 25.2284 0.393617 29.9488 1.26583 34.5995C1.60725 35.8378 2.27583 36.9668 3.20466 37.8735C4.13349 38.7803 5.28998 39.433 6.5584 39.7663C11.2296 41.0005 30 41.0005 30 41.0005C30 41.0005 48.7704 41.0005 53.4416 39.7663C54.71 39.433 55.8665 38.7803 56.7953 37.8735C57.7242 36.9668 58.3927 35.8378 58.7342 34.5995C59.6064 29.9488 60.0296 25.2284 59.9984 20.5005C60.0296 15.7726 59.6064 11.0522 58.7342 6.40151ZM24.0003 29.2862V11.7148L39.5781 20.5005L24.0003 29.2862Z" fill="white"/>
</svg>
