<svg width="168" height="168" viewBox="0 0 168 168" fill="none" xmlns="http://www.w3.org/2000/svg">
<path d="M90.1816 0.782837C92.1106 1.44622 94.1524 1.36817 96.1378 1.67601C116.295 4.7978 133.106 14.0591 146.554 29.3732C157.538 41.882 164.253 56.4807 166.291 73.0044C169.412 98.2996 162.506 120.703 145.591 139.746C132.725 154.227 116.465 162.829 97.4123 166.129C95.2882 166.498 93.1293 166.649 90.9879 166.905C90.6974 166.94 90.3203 166.771 90.1816 167.217C85.8553 167.217 81.5333 167.217 77.207 167.217C76.9729 166.658 76.4614 166.905 76.0799 166.862C59.9668 165.162 45.4013 159.513 32.7171 149.388C15.555 135.692 5.28974 117.897 1.87811 96.1447C1.60067 94.3713 1.74373 92.5199 0.985107 90.829C0.985107 86.2764 0.985107 81.7281 0.985107 77.1755C1.42294 77.0411 1.28422 76.6639 1.3189 76.369C1.63535 73.5724 2.01683 70.7932 2.54136 68.0269C9.04383 33.6526 37.1865 6.7359 71.901 1.67601C73.6696 1.41587 75.5163 1.5286 77.207 0.787172C81.529 0.782836 85.8553 0.782837 90.1816 0.782837ZM162.511 83.9957C162.467 40.4555 127.328 5.33544 83.8135 5.33977C40.8756 5.34411 5.51949 40.6766 5.51949 83.5838C5.51949 127.445 40.5808 162.725 84.1126 162.665C127.311 162.604 162.558 127.237 162.511 83.9957Z" fill="white"/>
<path d="M11.3586 83.9654C11.428 43.729 44.0704 11.0413 84.0388 11.1844C124.28 11.3232 156.754 43.9718 156.676 84.1995C156.598 124.609 123.812 157.163 83.1718 156.764C43.1644 156.378 11.4367 123.859 11.3586 83.9654ZM83.705 152.263C121.333 152.402 151.942 121.925 152.133 84.1301C152.319 46.8074 121.801 15.8844 84.6414 15.7414C46.8491 15.5983 16.0231 45.9273 15.9017 83.3713C15.7803 121.392 46.0211 152.124 83.705 152.263Z" fill="white"/>
<path d="M83.9478 61.4322C79.4178 62.5725 76.3399 60.4479 73.6306 57.0833C71.94 54.9848 69.9112 53.1594 68.0038 51.2387C66.9244 50.1547 66.842 49.0708 67.5963 47.7397C71.4718 40.8978 71.2247 34.1426 67.0198 27.5261C65.845 25.6791 66.3738 24.0878 68.459 23.5588C78.7675 20.9444 89.0804 20.901 99.3933 23.5242C101.717 24.1138 102.202 25.614 100.928 27.6432C96.8487 34.1599 96.5626 40.837 100.343 47.5792C101.158 49.0361 101.119 50.1504 99.9352 51.3427C97.1131 54.1827 94.3084 57.04 91.5731 59.9666C90.5587 61.0549 89.4533 61.5232 87.9967 61.4452C86.6529 61.3758 85.296 61.4322 83.9478 61.4322ZM83.3669 56.8752C85.0229 56.8752 86.1587 56.8449 87.2901 56.8882C87.9403 56.9099 88.4085 56.6844 88.855 56.2248C90.9488 54.0353 93.0556 51.8587 95.1884 49.7038C95.6739 49.2138 95.7606 48.8279 95.4615 48.1559C92.5701 41.5741 92.4791 34.949 95.3358 28.3369C95.726 27.4351 95.4702 27.2746 94.6422 27.1229C87.6022 25.8351 80.5752 25.8482 73.5309 27.0969C72.4471 27.2876 72.3995 27.5738 72.7939 28.5277C75.486 34.9924 75.4643 41.4744 72.6726 47.9088C72.3214 48.7196 72.3171 49.2268 72.9977 49.8685C74.3762 51.1606 75.7634 52.4787 76.9468 53.9485C78.7719 56.2032 80.818 57.6773 83.3669 56.8752Z" fill="white"/>
<path d="M83.9956 106.568C88.5906 105.393 91.7118 107.552 94.4515 110.969C96.0685 112.985 98.0452 114.715 99.8486 116.584C101.236 118.019 101.253 118.734 100.308 120.451C96.6103 127.15 96.8487 133.784 100.876 140.253C102.202 142.386 101.752 143.873 99.3544 144.485C89.0415 147.112 78.7242 147.051 68.42 144.433C66.4302 143.925 65.845 142.295 66.9548 140.565C71.2724 133.849 71.4891 127.016 67.501 120.078C66.8594 118.96 66.9027 117.919 67.8218 116.974C70.9126 113.791 74.0164 110.622 77.0986 107.431C77.7619 106.741 78.5682 106.577 79.4568 106.577C80.9654 106.568 82.4783 106.568 83.9956 106.568ZM84.0953 111.125C83.4493 111.125 82.7904 111.199 82.1532 111.112C80.5102 110.878 79.3181 111.459 78.2257 112.725C76.6044 114.602 74.8184 116.345 73.0497 118.088C72.4385 118.695 72.2608 119.15 72.6379 120.026C75.46 126.495 75.5163 133.021 72.7463 139.52C72.2998 140.565 72.5902 140.73 73.5569 140.899C80.5362 142.135 87.5025 142.161 94.4819 140.899C95.4659 140.721 95.713 140.539 95.2752 139.511C92.5051 133.012 92.5658 126.487 95.3922 120.018C95.7737 119.146 95.5959 118.674 94.9847 118.08C93.6669 116.8 92.3144 115.534 91.1613 114.112C89.3059 111.823 87.2251 110.292 84.0953 111.125Z" fill="white"/>
<path d="M67.397 66.9777C67.3536 67.6671 67.1065 68.2004 66.8074 68.7207C65.2945 71.3395 63.7599 73.9453 62.2947 76.5902C61.7225 77.6221 60.9205 78.1771 59.8021 78.4502C55.8226 79.4258 51.8561 80.4491 47.8809 81.4376C45.9475 81.9189 45.3363 81.6284 44.3696 79.842C41.0793 73.7762 33.6578 69.8393 26.7609 70.5027C24.6541 70.7065 23.462 69.4881 24.0038 67.4763C26.8433 56.975 32.1189 47.8568 39.7572 40.1304C41.1617 38.7082 42.809 39.1591 43.7627 41.0626C46.9489 47.4492 52.2029 50.8571 59.1952 51.6072C63.1747 52.0322 63.192 51.9368 64.3278 55.9691C65.2988 59.3987 66.2525 62.8327 67.2149 66.2623C67.2842 66.5268 67.3449 66.7869 67.397 66.9777ZM41.0316 45.6759C40.5548 45.7582 40.3944 46.1355 40.156 46.4129C35.6129 51.72 32.1839 57.6687 29.752 64.2245C29.2665 65.5295 29.3836 65.8894 30.7968 66.0715C37.5637 66.9473 42.9867 70.2035 47.0529 75.671C47.6641 76.4905 48.219 76.7419 49.1814 76.4731C51.9341 75.71 54.6955 74.9686 57.4785 74.3182C58.2632 74.1361 58.6837 73.7416 59.0391 73.0912C60.2052 70.9666 62.0779 68.9505 62.3944 66.7132C62.6892 64.606 61.3583 62.269 60.7428 60.0317C60.6994 59.8756 60.6691 59.7152 60.6431 59.5548C60.2659 57.3522 59.4726 56.1122 56.7676 55.7436C50.0961 54.8504 44.9114 51.1476 41.0316 45.6759Z" fill="white"/>
<path d="M141.512 70.4464C133.722 70.3119 127.51 73.1476 123.526 80.1716C122.832 81.3943 121.892 81.9146 120.431 81.5287C116.313 80.4447 112.177 79.4302 108.046 78.3982C107.049 78.1511 106.325 77.6134 105.809 76.6943C104.305 74.0104 102.762 71.3482 101.21 68.686C100.72 67.8449 100.568 67.0297 100.85 66.0628C102.038 61.9655 103.195 57.8638 104.313 53.7448C104.738 52.1796 105.675 51.6159 107.266 51.6029C114.921 51.5466 120.544 48.0259 124.163 41.3227C125.425 38.9857 126.847 38.6258 128.659 40.4902C135.989 48.0389 141.048 56.9143 143.961 67.0254C144.585 69.2063 143.567 70.6458 141.512 70.4464ZM138.777 65.7073C136.362 58.5229 132.716 52.0885 127.848 46.3262C127.133 45.4764 126.903 45.7929 126.383 46.478C122.104 52.0885 116.473 55.3621 109.433 56.0905C108.596 56.1772 108.18 56.4807 108.02 57.3045C107.842 58.202 107.556 59.0779 107.313 59.9667C106.693 62.256 105.371 64.632 105.644 66.8086C105.922 68.9852 107.829 70.9406 108.952 73.0348C109.377 73.8283 109.94 74.1838 110.799 74.3876C113.473 75.0163 116.139 75.6883 118.779 76.4515C119.846 76.7593 120.388 76.4688 121.025 75.6016C124.319 71.1574 128.637 68.1484 133.995 66.7132C135.551 66.3013 137.151 66.0455 138.777 65.7073Z" fill="white"/>
<path d="M144.195 99.8475C144.113 100.233 144.044 100.663 143.922 101.075C141.026 111.073 136.007 119.849 128.802 127.358C126.842 129.396 125.499 129.054 124.116 126.539C120.483 119.94 114.9 116.428 107.305 116.367C105.74 116.354 104.756 115.851 104.327 114.26C103.212 110.141 102.046 106.039 100.863 101.942C100.585 100.979 100.711 100.16 101.205 99.3185C102.788 96.6173 104.357 93.9074 105.891 91.1759C106.381 90.3 107.097 89.8318 108.029 89.5976C112.16 88.557 116.3 87.5511 120.414 86.4585C121.87 86.0726 122.802 86.5626 123.517 87.7896C127.553 94.6965 133.566 97.9137 141.538 97.4411C143.103 97.3501 144.23 98.3473 144.195 99.8475ZM126.994 122.311C127.449 122.277 127.579 121.934 127.779 121.7C132.356 116.354 135.833 110.371 138.278 103.758C138.764 102.44 138.651 102.089 137.225 101.916C131.247 101.187 126.101 98.5988 122.356 93.9031C120.583 91.6788 119.039 91.1412 116.482 92.1081C114.28 92.9449 111.488 92.8061 109.758 94.1416C107.977 95.5204 107.192 98.1739 105.913 100.233C105.471 100.944 105.445 101.564 105.692 102.354C106.399 104.621 107.157 106.893 107.599 109.217C107.968 111.16 108.727 112.205 110.829 112.044C111.497 111.992 112.199 112.3 112.879 112.473C118.818 113.991 123.496 117.342 126.994 122.311Z" fill="white"/>
<path d="M28.7941 97.6535C34.8804 97.2503 40.6112 94.4927 44.3176 88.2101C45.423 86.3327 45.8825 86.0552 47.9503 86.5712C51.8735 87.5511 55.7836 88.57 59.7111 89.5239C60.8902 89.81 61.7225 90.3867 62.3208 91.475C63.7513 94.0765 65.2599 96.6389 66.7728 99.1927C67.332 100.138 67.449 101.066 67.1412 102.128C65.9795 106.121 64.8437 110.119 63.7556 114.134C63.3178 115.747 62.4031 116.454 60.7125 116.363C54.1667 116.024 46.8276 120.451 43.9708 126.4C42.6313 129.192 41.2398 129.435 39.1156 127.224C32.1797 120.005 27.3072 111.563 24.3724 101.998C23.2409 98.2865 23.9389 97.4237 28.7941 97.6535ZM29.2622 102.297C31.6508 109.412 35.2618 115.803 40.0737 121.535C40.893 122.506 41.1487 122.19 41.7426 121.401C45.7091 116.159 50.9718 112.955 57.4526 112.061C59.2993 111.806 60.0015 111.181 60.3743 109.464C60.9249 106.936 62.1083 104.5 62.3381 101.963C62.5895 99.2274 60.0839 97.3717 59.0739 94.9913C59.0522 94.9436 59.0218 94.8959 59.0002 94.8482C58.701 94.1415 58.1722 93.8467 57.4136 93.6646C54.6869 93.0185 51.9775 92.3075 49.2811 91.5444C48.2581 91.2582 47.6685 91.462 47.0183 92.3638C43.9058 96.6606 39.7442 99.5613 34.6983 101.118C32.9556 101.647 31.1306 101.898 29.2622 102.297Z" fill="white"/>
<path d="M83.9133 67.8058C92.6439 67.667 100.026 74.9122 100.174 83.7659C100.321 92.6326 93.1338 100.03 84.2081 100.19C75.4644 100.346 68.0386 93.1356 67.8609 84.3079C67.6831 75.3718 74.9009 67.9489 83.9133 67.8058ZM95.6307 84.1084C95.6828 77.7131 90.4548 72.4104 84.039 72.3627C77.7576 72.3107 72.482 77.5397 72.3996 83.8917C72.3172 90.2566 77.6016 95.6157 83.987 95.6417C90.277 95.6677 95.5787 90.4214 95.6307 84.1084Z" fill="white"/>
</svg>
