<svg width="172" height="140" viewBox="0 0 172 140" fill="none" xmlns="http://www.w3.org/2000/svg">
<path d="M6.02059 54.7475C6.10957 54.7006 6.25362 54.675 6.27904 54.6069C7.96108 50.0353 11.3887 48.395 15.9984 48.6762C17.5788 48.7742 19.1888 48.5782 20.7437 48.8126C24.8916 49.4389 27.5651 52.7237 27.6413 57.0481C27.6837 59.5703 27.7134 59.3318 30.0903 59.63C33.2086 60.0262 34.772 58.8162 36.1871 56.0086C40.7206 47.0189 45.6353 38.2252 50.3383 29.3251C51.7407 26.675 53.6388 24.8089 56.6724 24.3616C57.185 24.2849 57.452 24.1059 57.4096 23.5649C57.3969 23.4072 57.4181 23.2453 57.4096 23.0877C57.3249 21.6689 57.9943 19.8454 57.1427 18.938C56.3504 18.0986 54.5412 18.7036 53.1812 18.6994C42.2967 18.6781 31.4164 18.6908 20.5319 18.6866C20.0065 18.6866 19.4557 18.7377 18.9515 18.6142C17.6805 18.3074 16.9432 17.417 16.867 16.126C16.795 14.9033 17.3881 13.9787 18.5405 13.5016C18.8753 13.361 19.2481 13.3056 19.6082 13.2502C20.6632 13.084 22.0529 13.77 22.7181 12.8838C23.3197 12.0786 23.2731 10.7621 23.4553 9.66285C23.9807 6.50582 25.5356 4.11994 28.5438 2.87587C30.9207 1.89596 33.2637 2.13028 35.5601 3.28914C41.5891 6.3354 47.6394 9.33905 53.6473 12.4194C54.8166 13.0201 55.9648 13.263 57.2655 13.263C83.9451 13.2374 110.625 13.2459 137.304 13.2459C138.092 13.2459 138.889 13.1522 139.643 13.5143C140.834 14.0895 141.406 15.0524 141.228 16.3433C141.054 17.6257 140.274 18.4565 138.961 18.6525C138.444 18.7292 137.906 18.6908 137.376 18.6908C123.903 18.6908 110.434 18.7121 96.9608 18.661C95.6897 18.6568 95.0669 18.8953 95.3042 20.28C95.3677 20.6422 95.3465 21.0256 95.3084 21.3963C95.0966 23.3731 95.2152 25.0816 97.4777 25.9848C98.592 26.4279 99.2063 27.6464 99.7825 28.7456C104.041 36.8619 108.324 44.9696 112.569 53.0944C113.019 53.955 113.506 54.3981 114.548 54.5515C128.233 56.5965 141.423 60.35 153.858 66.5618C156.167 67.7164 158.357 69.1139 160.658 70.294C162.382 71.1802 163.183 72.4711 162.937 74.4054C162.806 75.4407 163.031 75.9733 164.251 76.1863C166.551 76.591 168.216 78.6829 168.31 81.0646C168.39 83.084 168.394 85.112 168.314 87.1315C168.187 90.2161 165.806 92.3165 162.446 92.3251C154.468 92.3464 146.49 92.3506 138.512 92.3123C137.427 92.308 136.656 92.5935 135.889 93.3944C133.178 96.2277 130.347 98.9544 127.623 101.779C126.632 102.806 125.555 103.266 124.123 103.262C108.485 103.232 92.8468 103.232 77.2085 103.257C75.84 103.262 74.7935 102.827 73.8402 101.843C71.0015 98.9075 68.0907 96.0445 65.2393 93.1218C64.6758 92.5466 64.1039 92.3123 63.2988 92.3165C57.5918 92.3464 51.889 92.3506 46.1819 92.3123C45.3133 92.308 44.7075 92.5764 44.1101 93.1899C41.2586 96.1126 38.3522 98.98 35.5092 101.911C34.5941 102.853 33.5814 103.309 32.2722 103.257C30.7936 103.198 29.3149 103.275 27.8362 103.236C24.5357 103.155 22.2987 100.901 22.2309 97.5783C22.1927 95.7207 22.2224 93.8588 22.2224 91.9203C19.6676 92.5423 17.1805 92.3251 14.7062 92.3251C10.5286 92.3208 7.91448 90.476 6.36378 86.518C6.28752 86.322 6.2621 86.109 6.01636 86.0493C6.02059 75.6154 6.02059 65.1814 6.02059 54.7475ZM47.1182 65.0238C41.0426 65.0238 34.9669 65.028 28.8912 65.0153C28.1455 65.0153 27.6075 64.9854 27.6075 66.0548C27.6456 76.2757 27.6286 86.4924 27.6329 96.7134C27.6329 97.067 27.5142 97.476 27.9083 97.7274C28.5523 98.1406 32.0858 97.6251 32.6917 97.0201C35.3821 94.3147 38.0979 91.6263 40.746 88.8783C42.0848 87.4894 43.6355 86.8461 45.5464 86.8546C51.622 86.8844 57.6977 86.8887 63.7734 86.8503C65.7393 86.8375 67.3366 87.4809 68.7136 88.9167C71.3192 91.6349 74.0181 94.2593 76.6492 96.9562C77.2 97.5229 77.7508 97.8041 78.5685 97.7998C93.3086 97.7742 108.044 97.7742 122.785 97.7998C123.59 97.7998 124.157 97.5612 124.717 96.986C127.229 94.3999 129.847 91.916 132.305 89.2745C133.949 87.5022 135.838 86.812 138.215 86.8333C145.926 86.91 153.642 86.8248 161.353 86.8972C162.721 86.91 163.098 86.5052 162.954 85.21C162.848 84.2642 162.908 83.2971 162.942 82.3384C162.967 81.7079 162.793 81.4395 162.115 81.2818C159.031 80.5746 157.679 78.9087 157.548 75.7048C157.523 75.0445 157.357 74.644 156.764 74.3202C143.829 67.2137 130.089 62.4973 115.539 60.1625C114.323 59.9666 114.162 60.4182 114.175 61.4876C114.23 65.6927 114.251 69.8978 114.167 74.1029C114.137 75.5046 114.425 75.986 115.946 75.969C123.975 75.8838 132.004 75.9264 140.037 75.9349C140.613 75.9349 141.206 75.9307 141.77 76.0499C143.198 76.3524 143.952 77.277 143.943 78.7596C143.939 80.123 143.016 81.137 141.617 81.333C141.151 81.3969 140.668 81.3926 140.194 81.3926C131 81.3969 121.81 81.3969 112.616 81.3926C109.578 81.3926 108.79 80.5831 108.79 77.5028C108.79 71.9684 108.799 66.4297 108.773 60.8953C108.773 60.4437 109.112 59.8217 108.32 59.5746C105.57 58.7182 103.388 60.2904 103.384 63.1747C103.375 68.2319 103.401 73.2891 103.375 78.3464C103.35 83.3013 100.113 86.7353 95.2194 86.8375C90.203 86.9398 85.1823 86.9313 80.1658 86.8375C76.4077 86.7694 73.8148 84.8351 72.4166 81.3159C71.9294 80.0846 71.3786 78.8619 71.0566 77.5837C70.7049 76.1735 69.9465 75.8667 68.578 75.8923C63.6124 75.986 58.6468 75.9307 53.6812 75.9307C47.8682 75.9307 42.0594 75.9434 36.2464 75.9221C34.1915 75.9136 32.929 74.7164 33.0815 73.0122C33.2255 71.4316 34.3949 70.4857 36.3524 70.4815C41.7417 70.4602 47.131 70.473 52.516 70.473C57.3757 70.473 62.2354 70.4474 67.0951 70.4943C68.184 70.5028 68.3873 70.2344 67.9255 69.2417C67.4806 68.2831 67.129 67.2733 66.8409 66.2551C66.5655 65.2794 66.0401 64.9854 65.0275 64.994C59.0577 65.0536 53.088 65.0238 47.1182 65.0238ZM106.96 54.0999C106.659 53.5076 106.451 53.0901 106.235 52.6811C102.583 45.7408 98.8886 38.826 95.3169 31.8473C94.4653 30.1814 93.334 29.5636 91.5588 29.5764C85.2204 29.6233 78.8821 29.6403 72.5437 29.5594C71.171 29.5423 70.9337 29.9854 70.9422 31.2551C70.9972 40.7815 70.993 50.308 70.9506 59.8345C70.9422 61.3044 71.226 62.6549 71.726 64.014C72.0014 64.7681 72.37 65.0706 73.2004 65.0451C75.4163 64.9812 77.6364 65.028 79.8565 65.0195C82.0555 65.011 82.619 64.6148 83.3647 62.5612C84.6908 58.9142 87.4151 56.9544 91.3046 56.9033C93.8933 56.8692 96.482 56.8947 99.0707 56.899C99.5961 56.899 100.083 56.9246 100.52 56.4815C102.215 54.7602 104.346 54.1212 106.96 54.0999ZM40.5935 59.4383C40.6994 59.4851 40.7841 59.5618 40.8731 59.5618C48.7918 59.5703 56.7063 59.5661 64.625 59.5959C65.4215 59.6002 65.5783 59.2849 65.5741 58.5649C65.5529 49.2599 65.5529 39.9507 65.5783 30.6458C65.5825 29.7767 65.269 29.5636 64.4725 29.5807C62.5743 29.6275 60.672 29.6488 58.7739 29.5807C57.0368 29.521 55.9521 30.2581 55.1344 31.8089C50.4908 40.6111 45.7752 49.3792 41.0976 58.1644C40.8858 58.5606 40.5002 58.91 40.5935 59.4383ZM22.2224 70.392C22.2224 65.9781 22.2393 61.5685 22.2139 57.1546C22.2012 55.2374 21.1886 54.2021 19.2947 54.1467C17.7144 54.0999 16.1298 54.1126 14.5452 54.1425C12.4522 54.1808 11.4311 55.1991 11.4268 57.2995C11.4099 66.123 11.4099 74.9507 11.4268 83.7742C11.4311 85.7895 12.431 86.7864 14.452 86.8503C15.9815 86.8972 17.511 86.8887 19.0405 86.8546C21.2818 86.8077 22.2054 85.8704 22.2139 83.6251C22.2351 79.2155 22.2224 74.8016 22.2224 70.392ZM74.1537 70.4815C75.3994 73.7663 76.556 76.9404 77.8186 80.0676C78.2084 81.0305 79.1659 81.3841 80.1785 81.3884C85.195 81.3969 90.2157 81.4224 95.2321 81.3671C96.9904 81.35 97.9565 80.3062 97.9649 78.5296C97.9946 73.4724 97.9565 68.4194 97.9988 63.3622C98.0073 62.4675 97.6768 62.3184 96.9015 62.3397C95.211 62.3908 93.5205 62.3482 91.8299 62.3567C89.6183 62.3652 89.0802 62.7444 88.3176 64.7937C86.9236 68.5302 84.212 70.4431 80.2294 70.473C78.2804 70.4943 76.3315 70.4815 74.1537 70.4815ZM76.3993 24.14C79.5642 24.14 82.7334 24.14 85.8983 24.14C89.9318 24.14 89.8767 24.14 89.9233 20.1266C89.9361 18.8783 89.5336 18.6568 88.3981 18.6653C81.2208 18.7164 74.0393 18.6908 66.8621 18.6908C62.7015 18.6908 62.7438 18.6908 62.7777 22.9556C62.7862 23.9952 63.1294 24.1698 64.0488 24.1613C68.1628 24.1145 72.281 24.14 76.3993 24.14ZM42.5551 13.1735C42.589 13.0968 42.6187 13.0244 42.6526 12.9477C39.3266 11.2818 36.0303 9.56059 32.6663 7.97995C30.9927 7.19176 29.3615 8.12907 28.9082 9.97386C28.654 11.0006 28.5057 12.053 28.2981 13.1735C33.0773 13.1735 37.8141 13.1735 42.5551 13.1735Z" fill="white"/>
<path d="M54.7233 125.054C50.2026 125.058 46.5716 121.386 46.6013 116.836C46.6309 112.383 50.2704 108.741 54.6979 108.732C59.2229 108.724 62.82 112.383 62.7988 116.968C62.7776 121.467 59.2017 125.05 54.7233 125.054ZM57.3926 116.861C57.3714 115.357 56.1088 114.13 54.6301 114.177C53.2235 114.224 52.0287 115.447 52.0033 116.861C51.9778 118.348 53.2192 119.601 54.7106 119.605C56.2274 119.605 57.4138 118.391 57.3926 116.861Z" fill="white"/>
<path d="M154.769 117.01C154.722 121.582 151.083 125.122 146.498 125.05C142.092 124.982 138.499 121.245 138.563 116.789C138.626 112.277 142.367 108.651 146.875 108.732C151.316 108.809 154.815 112.481 154.769 117.01ZM146.63 119.605C148.159 119.635 149.35 118.467 149.358 116.925C149.367 115.396 148.168 114.169 146.672 114.181C145.27 114.194 144.041 115.391 143.977 116.802C143.914 118.267 145.147 119.575 146.63 119.605Z" fill="white"/>
<path d="M54.698 134.76C44.8812 134.76 36.8989 126.729 36.8989 116.861C36.8989 106.99 44.8854 98.9629 54.698 98.9629C64.5106 98.9629 72.4971 106.994 72.4971 116.861C72.5014 126.729 64.5149 134.76 54.698 134.76ZM54.698 103.645C47.453 103.645 41.5595 109.572 41.5595 116.857C41.5595 124.142 47.453 130.069 54.698 130.069C61.9431 130.069 67.8366 124.142 67.8366 116.857C67.8408 109.576 61.9431 103.645 54.698 103.645Z" fill="white"/>
<path d="M146.668 134.76C136.851 134.76 128.869 126.729 128.869 116.861C128.869 106.99 136.855 98.9629 146.668 98.9629C156.485 98.9629 164.467 106.994 164.467 116.861C164.471 126.729 156.485 134.76 146.668 134.76ZM146.668 103.645C139.423 103.645 133.529 109.572 133.529 116.857C133.529 124.142 139.423 130.069 146.668 130.069C153.913 130.069 159.806 124.142 159.806 116.857C159.811 109.576 153.917 103.645 146.668 103.645Z" fill="white"/>
</svg>
