<svg width="141" height="158" viewBox="0 0 141 158" fill="none" xmlns="http://www.w3.org/2000/svg">
<path d="M125.511 0.856355C127.823 1.55442 130.2 2.03003 132.293 3.35328C137.73 6.78224 140.613 11.7186 140.755 18.0664C140.882 23.8235 141.06 29.5921 140.628 35.3492C139.958 44.2668 132.2 51.2475 123.191 51.1132C114.17 50.9828 106.894 44.2822 106.058 35.3339C105.865 33.278 105.865 33.278 103.803 33.278C96.37 33.278 88.9403 33.278 81.5068 33.278C79.4875 33.278 77.7727 34.9427 77.7727 36.9065C77.7727 65.1129 77.7727 93.3232 77.7727 121.53C77.7727 123.432 79.4759 125.154 81.3565 125.154C89.0443 125.154 96.7322 125.124 104.42 125.189C105.63 125.2 105.908 124.817 106 123.704C106.601 116.367 110.378 111.258 117.191 108.443C127.426 104.216 139.865 111.81 140.605 122.78C141.033 129.143 141.021 135.525 140.605 141.885C140.023 150.787 131.723 157.963 122.767 157.557C113.703 157.146 106.559 150.07 106.085 141.643C105.992 139.998 105.441 139.622 103.823 139.645C96.3931 139.748 88.9596 139.71 81.5299 139.672C80.4817 139.668 79.7341 139.925 78.9942 140.711C74.3083 145.659 66.6089 145.659 61.9229 140.711C61.1792 139.925 60.4316 139.668 59.3873 139.672C51.9037 139.71 44.4201 139.737 36.9403 139.652C35.4644 139.637 34.975 139.979 34.8439 141.49C34.2197 148.716 30.3815 153.668 23.6802 156.41C14.5588 160.142 3.39501 154.542 0.851655 145.038C0.439324 143.496 0.150306 141.935 0.150306 140.37C0.142599 134.356 -0.192661 128.326 0.331424 122.324C1.06745 113.905 9.27169 107.016 18.027 107.334C27.052 107.664 34.0193 114.204 34.8478 123.244C34.9827 124.717 35.3488 125.219 36.9518 125.196C44.4856 125.093 52.0193 125.15 59.553 125.15C61.4258 125.15 63.1407 123.417 63.1407 121.526C63.1407 93.3194 63.1407 65.1091 63.1407 36.9026C63.1407 34.9964 61.4413 33.2742 59.5607 33.2742C51.8729 33.2742 44.185 33.3049 36.4971 33.2397C35.291 33.2282 34.9788 33.6079 34.9056 34.7202C34.4856 40.9836 31.4836 45.6936 26.0809 48.8848C16.6705 54.4425 3.70329 49.1533 0.859362 38.6401C0.454738 37.1481 0.173428 35.6446 0.161867 34.1257C0.127185 28.008 -0.219636 21.8789 0.346838 15.7765C0.994237 8.79589 6.73605 2.90836 14.316 1.16703C14.5896 1.10566 14.9518 1.23991 15.0944 0.848684C16.632 0.848684 18.1696 0.848684 19.7071 0.848684C21.0482 1.23991 22.4393 1.51223 23.7264 2.04153C30.4278 4.79544 34.2274 9.77395 34.8632 16.9847C34.9904 18.4154 35.4143 18.7721 36.8517 18.7567C44.4355 18.6724 52.0231 18.6992 59.6108 18.7376C60.5703 18.7414 61.2177 18.4422 61.8651 17.7633C66.6667 12.7426 74.2505 12.7426 79.052 17.7633C79.7033 18.4422 80.3468 18.7452 81.3064 18.7376C88.79 18.6992 96.2736 18.7146 103.757 18.7146C105.854 18.7146 105.846 18.7146 106.046 16.6741C106.613 10.9783 109.368 6.64416 114.162 3.49903C116.239 2.13742 118.624 1.65414 120.898 0.844849C122.435 0.856355 123.973 0.856355 125.511 0.856355ZM133.202 147.791C133.476 147.757 133.561 147.523 133.422 147.385C133.21 147.178 133.164 147.519 133.029 147.604C132.929 147.703 132.832 147.799 132.732 147.899C132.108 148.516 131.48 149.138 130.856 149.755C129.048 150.729 128.382 150.645 126.917 149.245C125.742 148.121 124.601 146.154 123.38 146.1C121.981 146.042 120.963 148.167 119.738 149.299C118.135 150.776 116.979 150.764 115.368 149.257C114.821 148.747 114.447 147.96 113.43 147.795C117.726 153.418 125.954 154.369 131.071 149.959C131.846 149.506 132.513 148.942 132.929 148.133C133.121 148.098 133.21 147.983 133.202 147.791ZM7.70715 147.791C7.69944 147.983 7.78807 148.098 7.98075 148.129C8.39693 148.942 9.0636 149.502 9.83817 149.955C15.079 154.63 24.1503 152.996 27.0443 147.627C26.37 148.06 25.9653 148.777 25.4104 149.333C23.9808 150.764 22.7438 150.764 21.291 149.395C20.3623 148.52 19.4258 147.642 18.5896 146.679C17.8728 145.851 17.3565 145.678 16.5742 146.625C15.7996 147.569 14.8671 148.382 13.9885 149.234C12.5318 150.641 11.8613 150.726 10.054 149.751C9.42969 149.134 8.80156 148.513 8.17728 147.895C8.08094 147.799 7.98075 147.699 7.88441 147.604C7.73027 147.431 7.51447 147.074 7.35262 147.258C7.10984 147.535 7.48364 147.673 7.70715 147.791ZM68.0116 79.0665C68.0116 91.9232 68.0077 104.78 68.0154 117.637C68.0154 118.595 67.7727 119.781 68.2389 120.437C68.5434 120.862 69.9345 120.521 70.8362 120.525C70.9904 120.525 71.1522 120.513 71.2948 120.555C72.7245 120.958 72.9249 120.306 72.9249 119.017C72.8863 92.9473 72.8979 66.8772 72.8902 40.8072C72.8902 39.8483 73.133 38.6631 72.6667 38.0072C72.3623 37.5815 70.9711 37.9229 70.0694 37.919C69.8651 37.919 69.6493 37.9344 69.4567 37.8807C68.1773 37.5355 67.9808 38.13 67.9846 39.2768C68.0231 52.5362 68.0116 65.8033 68.0116 79.0665ZM77.5877 132.564C77.6108 128.629 74.4663 125.384 70.5819 125.338C66.5742 125.288 63.3256 128.476 63.3295 132.461C63.3295 136.35 66.5434 139.53 70.4817 139.541C74.3045 139.553 77.5646 136.354 77.5877 132.564ZM70.4663 18.9025C66.5549 18.8987 63.3411 22.086 63.3295 25.9867C63.3179 29.8721 66.5434 33.1054 70.4316 33.1054C74.3083 33.1054 77.5492 29.8951 77.5877 26.0212C77.6262 22.1857 74.3468 18.9063 70.4663 18.9025ZM30.1465 33.5619C30.1465 31.8205 30.1118 30.1905 30.1619 28.5604C30.185 27.8239 29.7881 27.3598 29.2524 27.1029C28.7515 26.8612 28.5241 27.4941 28.2274 27.7741C27.2948 28.6486 26.4162 29.5768 25.4991 30.4628C23.9422 31.9701 22.7245 31.9586 21.1445 30.4283C20.1542 29.4694 19.1561 28.5105 18.2274 27.4941C17.711 26.9303 17.3834 26.984 16.8902 27.5094C15.8767 28.5872 14.8247 29.6343 13.7418 30.6469C12.4123 31.8896 11.1484 31.8896 9.83046 30.6584C8.85936 29.7532 7.95763 28.7751 6.99424 27.8623C6.65898 27.5478 6.41235 26.8574 5.84973 27.1067C5.23701 27.379 4.91331 27.9428 4.94414 28.7214C5.0058 30.2978 4.96341 31.8781 4.96341 33.558C6.48171 33.1553 7.54144 33.8189 8.49713 34.8621C9.35647 35.8057 10.3199 36.6495 11.1946 37.5777C11.6493 38.0609 11.9461 38.0533 12.4046 37.5662C13.4528 36.45 14.5395 35.3646 15.657 34.3175C16.9403 33.1208 18.1465 33.1361 19.4567 34.3021C19.7996 34.6051 20.1079 34.9503 20.4393 35.2687C21.3912 36.1815 22.3044 37.7464 23.3141 37.8155C24.3777 37.8883 25.2524 36.2161 26.1888 35.284C27.2871 34.1986 28.3122 33.0326 30.1465 33.5619ZM110.763 33.5849C112.212 33.1937 113.214 33.7498 114.123 34.6972C115.218 35.8325 116.355 37.7119 117.541 37.7656C118.879 37.8231 119.888 35.7826 121.06 34.678C122.798 33.0364 123.923 33.0211 125.638 34.6972C126.771 35.8018 127.857 37.7464 129.04 37.8001C130.378 37.8615 131.403 35.8172 132.578 34.7049C133.38 33.9493 134.166 33.2282 135.387 33.5158C135.95 33.6463 135.95 33.3241 135.95 32.9329C135.942 31.4025 135.934 29.8759 135.95 28.3456C135.958 27.7357 135.534 27.4059 135.121 27.1489C134.566 26.8037 134.366 27.4481 134.081 27.7127C133.075 28.6562 132.135 29.665 131.133 30.6124C129.757 31.9126 128.501 31.9126 127.114 30.6047C126.073 29.6228 125.048 28.6217 124.077 27.5708C123.541 26.9878 123.187 26.9341 122.628 27.5516C121.742 28.5373 120.771 29.4502 119.819 30.3784C118.173 31.9816 116.971 31.9931 115.353 30.4129C114.474 29.5576 113.638 28.6562 112.736 27.8316C112.412 27.5363 112.224 26.8037 111.592 27.1412C111.052 27.4327 110.721 27.916 110.748 28.6371C110.802 30.2173 110.763 31.7975 110.763 33.5849ZM135.942 125.392C135.973 124.368 135.873 123.359 135.688 122.354C135.603 121.89 135.568 121.388 135.11 121.177C134.54 120.912 134.339 121.518 134.042 121.798C133.04 122.746 132.1 123.754 131.094 124.698C129.75 125.967 128.543 125.983 127.191 124.736C126.216 123.835 125.222 122.937 124.382 121.917C123.557 120.916 123.006 121.127 122.266 121.975C121.426 122.933 120.497 123.812 119.565 124.686C118.154 126.006 116.963 125.99 115.549 124.648C114.551 123.697 113.603 122.696 112.609 121.741C112.339 121.48 112.143 120.966 111.657 121.142C111.175 121.319 111.125 121.81 111.021 122.274C110.705 123.685 110.821 125.112 110.744 126.531C110.698 127.383 110.917 127.701 111.823 127.551C112.651 127.417 113.272 127.946 113.823 128.491C114.844 129.492 115.877 130.482 116.852 131.525C117.376 132.085 117.73 132.15 118.281 131.54C119.133 130.593 120.073 129.726 120.983 128.829C122.798 127.041 123.869 127.03 125.653 128.779C126.782 129.883 127.892 131.851 129.04 131.878C130.362 131.905 131.407 129.883 132.582 128.76C133.337 128.039 134.089 127.352 135.245 127.567C135.807 127.67 135.969 127.436 135.942 126.922C135.923 126.412 135.946 125.902 135.942 125.392ZM30.1465 124.997C30.2235 124.134 30.0655 123.018 29.815 121.929C29.6262 121.115 29.21 120.763 28.4663 121.541C27.4798 122.573 26.4624 123.582 25.4335 124.571C23.9191 126.029 22.736 126.021 21.1985 124.541C20.2043 123.585 19.2062 122.63 18.2813 121.61C17.7187 120.989 17.3642 121.046 16.8247 121.629C15.8574 122.68 14.8324 123.681 13.7919 124.659C12.3815 125.987 11.1754 125.983 9.77651 124.656C8.7399 123.67 7.72641 122.665 6.74376 121.626C5.869 120.701 5.47979 121.112 5.26013 122.093C4.90175 123.701 4.9557 125.331 4.9557 126.961C4.9557 127.371 5.02121 127.67 5.5453 127.567C7.05975 127.271 7.869 128.342 8.77844 129.22C9.7688 130.175 10.7129 131.782 11.7804 131.874C12.8555 131.966 13.7187 130.179 14.7283 129.27C14.9172 129.101 15.0906 128.909 15.2755 128.733C17.0097 127.041 18.1002 127.041 19.8382 128.744C20.9673 129.849 22.0501 131.79 23.2293 131.851C24.5742 131.92 25.5723 129.853 26.7746 128.767C27.3757 128.223 27.9384 127.425 28.8131 127.574C30.3237 127.839 30.212 126.968 30.1426 126.017C30.131 125.772 30.1465 125.519 30.1465 124.997ZM30.1465 137.09C30.1465 136.327 30.1272 135.56 30.1542 134.797C30.1734 134.183 29.7457 133.853 29.3449 133.585C28.763 133.193 28.5819 133.892 28.3006 134.152C27.2524 135.127 26.289 136.189 25.2409 137.156C23.9461 138.348 22.7322 138.341 21.4451 137.14C20.3623 136.131 19.3064 135.088 18.2967 134.007C17.7727 133.443 17.422 133.343 16.8555 133.972C15.9307 134.992 14.9249 135.94 13.9345 136.899C12.3314 138.448 11.2139 138.44 9.58769 136.868C8.67054 135.982 7.79578 135.05 6.85551 134.183C6.56264 133.915 6.36996 133.239 5.8189 133.562C5.36033 133.83 4.94029 134.221 4.9557 134.9C4.99424 136.377 4.97497 137.854 4.96341 139.334C4.95956 139.768 5.05204 139.986 5.56456 139.894C6.77844 139.679 7.57998 140.389 8.35069 141.179C9.24087 142.092 10.1888 142.955 11.052 143.895C11.5838 144.474 11.9345 144.527 12.501 143.906C13.4952 142.813 14.5588 141.774 15.6455 140.769C16.9596 139.553 18.1118 139.56 19.4451 140.719C19.7919 141.022 20.1002 141.367 20.4278 141.685C21.3796 142.602 22.3083 144.217 23.2948 144.255C24.4509 144.301 25.2833 142.568 26.2967 141.651C27.0482 140.972 27.6725 139.852 28.7322 139.944C30.3815 140.09 30.2274 139.188 30.1503 138.164C30.1272 137.808 30.1465 137.447 30.1465 137.09ZM135.946 139.986C135.946 138.222 135.915 136.592 135.961 134.965C135.981 134.294 135.607 133.888 135.148 133.596C134.486 133.17 134.312 133.957 133.996 134.244C133.014 135.134 132.119 136.124 131.148 137.033C129.703 138.391 128.559 138.394 127.137 137.048C126.17 136.135 125.164 135.249 124.328 134.229C123.534 133.263 123.037 133.477 122.328 134.287C121.491 135.245 120.547 136.12 119.626 136.998C118.146 138.41 116.99 138.41 115.495 136.991C114.532 136.078 113.626 135.1 112.655 134.198C112.362 133.926 112.162 133.259 111.619 133.562C111.156 133.819 110.736 134.218 110.751 134.896C110.79 136.373 110.771 137.854 110.759 139.33C110.755 139.745 110.813 140.002 111.349 139.902C112.566 139.679 113.368 140.393 114.135 141.179C115.025 142.092 115.973 142.955 116.836 143.895C117.372 144.478 117.719 144.524 118.285 143.906C119.279 142.813 120.343 141.774 121.43 140.769C122.744 139.557 123.9 139.564 125.229 140.73C125.653 141.098 126.027 141.52 126.432 141.912C127.31 142.759 128.166 144.244 129.083 144.286C130.17 144.336 130.936 142.732 131.865 141.869C133.014 140.799 133.965 139.392 135.946 139.986ZM30.1465 18.565C30.2081 17.6176 30.0655 16.4976 29.7919 15.4122C29.6147 14.7103 29.2177 14.3306 28.5203 15.0708C27.5376 16.1102 26.5125 17.1151 25.4798 18.1047C23.9191 19.6006 22.7707 19.6044 21.2332 18.1431C20.0154 16.9847 18.8362 14.9251 17.5954 14.8867C16.1734 14.8445 15.106 17.0308 13.8343 18.1968C12.3314 19.5776 11.2062 19.5891 9.69944 18.1584C8.77073 17.2801 7.89212 16.348 6.96726 15.4697C6.65127 15.1667 6.40464 14.5645 5.92295 14.6949C5.29867 14.8637 5.31794 15.5387 5.19848 16.0949C4.91331 17.4066 5.02892 18.7376 4.94799 20.057C4.8979 20.9046 5.11755 21.2153 6.01543 21.0887C6.84009 20.9698 7.46052 21.4953 8.01543 22.0476C9.03277 23.0525 10.0732 24.0421 11.0482 25.0854C11.5723 25.6454 11.9229 25.7527 12.4894 25.1122C13.3333 24.1572 14.2813 23.2903 15.1908 22.3928C17.0097 20.5978 18.0886 20.5901 19.8767 22.3353C21.0097 23.4399 22.1118 25.3845 23.2833 25.4267C24.6281 25.4766 25.6339 23.4131 26.8247 22.3084C27.5068 21.6756 28.1619 20.9353 29.1792 21.0926C30.0694 21.2268 30.2235 20.8778 30.1503 20.1337C30.1118 19.6696 30.1465 19.2093 30.1465 18.565ZM135.896 21.154C135.981 19.3014 136.019 17.5294 135.669 15.7612C135.584 15.3393 135.487 14.9289 135.102 14.7294C134.582 14.461 134.408 15.0171 134.146 15.2664C133.106 16.2522 132.131 17.3031 131.083 18.2735C129.696 19.5622 128.551 19.5584 127.179 18.2696C126.1 17.2571 125.044 16.21 124.027 15.1322C123.53 14.6067 123.206 14.5568 122.69 15.113C121.68 16.1985 120.624 17.2417 119.541 18.2543C118.166 19.5469 117.01 19.5622 115.634 18.2927C114.547 17.2877 113.495 16.2368 112.478 15.159C111.657 14.2922 111.276 14.7026 111.071 15.5809C110.651 17.3875 110.732 19.2208 110.805 21.1348C112.424 20.7282 113.441 21.6027 114.428 22.6383C115.414 23.6662 116.435 25.3577 117.514 25.4191C118.751 25.4881 119.661 23.6394 120.713 22.623C122.906 20.5057 123.788 20.4981 125.961 22.6076C127.014 23.6279 127.969 25.5188 129.145 25.4191C130.289 25.3232 131.333 23.6125 132.358 22.5501C133.326 21.5528 134.324 20.7359 135.896 21.154ZM58.4856 28.4146C58.4856 27.2333 58.3083 26.1785 58.5241 25.2119C58.8786 23.6202 58.1503 23.5243 56.8709 23.532C50.3777 23.5818 43.8844 23.555 37.3912 23.555C35.0251 23.555 35.0251 23.555 35.0251 25.9829C35.0251 28.4108 35.0251 28.4108 37.5068 28.4108C44.5048 28.4146 51.5068 28.4146 58.4856 28.4146ZM94.1503 28.4146C96.8594 28.4146 99.5684 28.4146 102.281 28.4146C106.004 28.4146 105.977 28.4146 105.908 24.6596C105.892 23.8081 105.68 23.5358 104.794 23.5396C97.6879 23.5742 90.5781 23.5703 83.4721 23.5435C82.5742 23.5396 82.1619 23.6662 82.3468 24.7056C82.4933 25.5418 82.5125 26.4546 82.343 27.2831C82.131 28.3225 82.5164 28.4415 83.4104 28.4338C86.9942 28.3916 90.5742 28.4146 94.1503 28.4146ZM58.6821 130.025C51.9229 130.025 45.3334 130.025 38.7438 130.025C34.7476 130.025 34.7592 130.025 35.0135 133.972C35.052 134.567 35.1291 134.896 35.8497 134.893C43.1599 134.87 50.474 134.873 57.7842 134.889C58.4586 134.889 58.7014 134.693 58.5742 133.999C58.343 132.733 58.4547 131.464 58.6821 130.025ZM94.0732 130.025C90.8517 130.025 87.6301 130.025 84.4085 130.025C82.3584 130.025 82.3661 130.025 82.4393 131.985C82.4586 132.541 82.5048 133.128 82.3661 133.658C82.0694 134.793 82.6089 134.9 83.5492 134.896C89.7881 134.866 96.0231 134.881 102.262 134.881C105.981 134.881 105.95 134.881 105.908 131.107C105.896 130.255 105.692 129.991 104.813 130.002C101.233 130.052 97.6532 130.025 94.0732 130.025ZM18 5.73514C14.6975 5.75816 12.1657 6.62882 9.94221 8.30494C8.08865 9.70491 8.11562 9.74327 9.72641 11.3427C10.1619 11.7761 10.6397 12.1712 11.0212 12.6468C11.553 13.3026 11.9576 13.3448 12.5588 12.6736C13.5491 11.5728 14.6127 10.5334 15.6956 9.52464C16.8902 8.41234 18.1696 8.41617 19.3834 9.47862C19.8073 9.84683 20.1696 10.2841 20.5896 10.6561C21.526 11.4961 22.3507 13.1991 23.3218 13.0572C24.3931 12.9037 25.2486 11.3849 26.2389 10.5104C26.7784 10.0348 26.8131 9.75094 26.2466 9.22164C23.7842 6.91265 20.8632 5.79651 18 5.73514ZM132.751 9.73943C132.489 9.56683 132.243 9.4556 132.066 9.27533C127.834 5.00639 120.478 4.54997 115.761 8.26659C113.896 9.7356 113.9 9.7356 115.595 11.4271C116.031 11.8605 116.501 12.2632 116.886 12.735C117.418 13.3832 117.807 13.2374 118.32 12.6889C119.295 11.6419 120.316 10.6369 121.356 9.65505C122.728 8.35864 123.973 8.38549 125.372 9.68573C125.746 10.0348 126.096 10.4068 126.466 10.7597C127.345 11.5958 128.239 13.0955 129.102 13.0802C130.008 13.0648 130.89 11.5958 131.777 10.752C132.066 10.4759 132.331 10.1767 132.751 9.73943ZM16.7476 112.171C14.316 112.167 11.3719 113.341 8.85166 115.661C8.25821 116.206 8.35455 116.497 8.87863 116.965C9.63778 117.644 10.37 118.365 11.0482 119.125C11.5723 119.712 11.9384 119.765 12.4971 119.144C13.4181 118.124 14.4201 117.169 15.4143 116.214C16.9518 114.733 18.131 114.725 19.6609 116.156C19.9962 116.471 20.3083 116.808 20.6397 117.126C21.5183 117.974 22.4008 119.501 23.2794 119.497C24.4393 119.497 25.1792 117.84 26.1888 117C26.7939 116.494 26.8285 116.164 26.1966 115.592C23.7919 113.41 20.9981 112.24 16.7476 112.171ZM133.233 116.237C132.559 115.93 132.262 115.88 132.089 115.707C127.777 111.304 120.035 111.036 115.314 115.048C114.216 115.98 114.042 116.482 115.198 117.541C117.63 119.765 117.565 119.838 119.904 117.502C123.152 114.261 123.53 114.261 126.755 117.479C129.121 119.842 129.114 119.834 131.549 117.441C131.911 117.084 132.378 116.843 133.233 116.237ZM115.946 43.7912C120.474 46.9709 126.644 47.0016 130.231 44.0098C128.343 44.2285 127.225 43.2427 126.2 42.0882C126.031 41.8965 125.838 41.7277 125.657 41.5474C123.349 39.2576 123.36 39.2653 121.079 41.5091C119.765 42.8017 118.667 44.5123 115.946 43.7912ZM24.2621 44.1556C22.6012 44.2592 21.5492 43.3271 20.5511 42.2417C19.9307 41.5666 19.1908 40.9913 18.6166 40.2779C17.8651 39.3458 17.3757 39.4226 16.4933 40.2472C14.7592 41.8658 13.5761 44.3934 10.1118 43.9868C15.1407 46.8827 19.6802 47.0169 24.2621 44.1556ZM113.422 41.1524C113.95 42.2608 114.609 42.8592 115.503 43.2274C115.006 42.4526 114.439 41.7469 113.422 41.1524ZM25.4991 43.189C26.3122 42.7518 27.079 42.2647 27.4027 41.1639C26.5087 41.7661 25.9114 42.3951 25.4991 43.189Z" fill="white"/>
</svg>
