<svg width="78" height="160" viewBox="0 0 78 160" fill="none" xmlns="http://www.w3.org/2000/svg">
<path d="M40.5473 0.435149C41.3337 0.986416 41.5915 1.74971 41.5746 2.69535C41.5366 4.50605 41.5915 6.32099 41.5535 8.13169C41.5366 8.86106 41.7606 9.11549 42.5132 9.11125C51.0868 9.09005 59.6563 9.08581 68.2299 9.11125C69.012 9.11549 69.2023 8.82289 69.1727 8.11473C69.1389 7.23694 69.1431 6.35067 69.2192 5.47713C69.308 4.4382 69.959 3.87845 70.9821 3.91237C71.9291 3.94206 72.4872 4.50605 72.5971 5.47289C72.6013 5.52377 72.6267 5.5789 72.6182 5.62554C72.2546 7.93663 72.7112 9.28511 75.5522 9.47593C77.3954 9.59891 77.852 11.5835 77.7886 13.3899C77.7125 15.5696 78.279 17.9824 75.6114 19.1698C74.9307 19.4751 74.1993 19.4412 73.4764 19.4412C69.0374 19.4412 64.5941 19.4836 60.1551 19.4157C59.0432 19.3987 58.667 19.7253 58.8276 20.7939C58.8826 21.1501 58.8361 21.519 58.8361 21.8795C58.8403 22.8633 58.5021 24.0633 58.946 24.7715C59.4533 25.5729 60.5567 24.5934 61.4488 24.6358C64.1164 24.763 66.281 26.5228 66.6572 29.0459C67.0546 31.7217 65.5031 34.1388 62.7298 34.9106C57.3733 36.4075 52 37.8535 46.6182 39.2444C45.4514 39.5455 44.8088 39.9271 45.0032 41.2798C45.147 42.2933 45.0328 43.3492 45.0328 44.3839C45.0328 46.2115 45.0371 46.2158 46.7112 45.7621C48.639 45.2405 50.5626 44.7019 52.9428 44.0489C50.8712 43.7817 49.2689 43.5527 47.6624 43.3704C47.0283 43.2983 46.5083 43.1414 46.6055 42.3739C46.6985 41.636 47.1974 41.53 47.8611 41.6191C49.5987 41.8565 51.3405 42.0686 53.0823 42.2594C55.4751 42.5265 57.8088 42.9251 60.2608 42.1619C63.0764 41.2841 65.9343 43.1584 66.598 45.902C67.2787 48.7262 65.6088 51.4316 62.5649 52.2755C57.9018 53.5688 53.2176 54.7986 48.5376 56.0453C45.0328 56.9782 45.0328 56.974 45.0328 60.6293C45.0328 63.5129 45.0328 63.5129 47.8273 62.7453C49.3154 62.3382 50.8036 61.9396 52.3128 61.2654C50.8585 61.083 49.4042 60.9007 47.9457 60.7226C47.2735 60.642 46.4829 60.6335 46.614 59.6455C46.745 58.6532 47.5314 58.861 48.1909 58.9416C51.0572 59.2978 53.9278 59.637 56.7899 60.0399C58.0878 60.2222 59.2081 59.6243 60.4088 59.3784C62.7382 58.8949 65.1522 60.0314 66.2006 62.1898C67.2364 64.3186 66.7037 66.8586 64.907 68.381C64.0572 69.0976 63.0426 69.4581 61.9899 69.7379C59.0052 70.5352 56.0289 71.379 53.0315 72.1254C52.241 72.3204 51.9028 72.6045 51.9577 73.4526C52.0296 74.5891 52.055 75.7383 51.9535 76.8663C51.852 78.0154 52.3509 78.0154 53.2049 77.7737C55.4371 77.1461 57.6693 76.5312 59.9141 75.9545C63.013 75.1573 65.854 76.7178 66.598 79.5802C67.321 82.3747 65.6764 85.0759 62.6198 85.9537C59.4533 86.8654 56.2699 87.722 53.0738 88.5319C52.2198 88.7482 51.9197 89.0832 51.9535 89.9822C52.0296 91.9455 52.038 93.9216 51.9535 95.885C51.9028 96.996 52.148 97.3904 53.3698 97.3607C57.1873 97.2674 61.0133 97.3183 64.8309 97.331C67.9424 97.3395 69.1431 98.5438 69.1811 101.631C69.2445 107.012 68.5808 107.682 63.1483 107.682C61.0302 107.682 58.9122 107.741 56.7984 107.657C55.7584 107.614 55.5343 107.953 55.5385 108.946C55.5808 115.989 55.5597 123.033 55.5597 130.081C55.5597 134.219 54.693 135.479 50.8374 136.827C50.3005 137.014 50.0341 137.243 49.8016 137.79C48.5333 140.784 47.2058 143.748 45.853 146.703C45.4852 147.505 45.4387 148.183 45.8023 149.036C47.2397 152.42 46.1193 156.27 43.2065 158.271C40.319 160.256 36.4465 159.951 33.7704 157.529C31.1704 155.18 30.4813 151.266 32.2484 148.179C32.7219 147.348 32.7219 146.767 32.3161 145.94C31.0901 143.438 29.9444 140.898 28.8283 138.345C28.4901 137.574 28.025 137.154 27.226 136.878C23.7636 135.678 22.6137 133.982 22.6137 130.271C22.6137 123.228 22.5756 116.18 22.6475 109.137C22.6602 107.856 22.2543 107.627 21.1044 107.661C18.3691 107.741 15.6296 107.703 12.8943 107.682C10.2098 107.661 8.92878 106.38 8.84845 103.688C8.83577 103.327 8.84422 102.962 8.84422 102.598C8.84422 98.5311 9.24585 98.0137 13.1776 97.1317C13.0888 96.9451 13.0338 96.7543 12.9197 96.6101C10.1463 93.1371 11.4823 88.9984 15.7818 87.8068C18.8088 86.9672 21.8358 86.1106 24.8881 85.3812C25.8647 85.148 26.1141 84.7282 26.0676 83.8037C25.9958 82.4129 26.0507 81.0135 26.0507 79.4275C23.4803 80.1102 21.0241 80.7633 18.5678 81.4163C15.2449 82.2984 12.4589 80.8651 11.5795 77.8246C10.7763 75.0513 12.6406 72.2229 15.8875 71.3451C21.1551 69.9203 26.4228 68.4827 31.7115 67.1215C32.6966 66.8671 33.0728 66.4812 33.0094 65.455C32.9249 64.0599 32.9671 62.6605 32.9967 61.2611C33.0094 60.6123 32.8657 60.2561 32.1301 60.4597C29.4159 61.206 26.6933 61.9439 24.0045 62.881C26.241 63.1482 28.4816 63.3984 30.7138 63.691C31.2338 63.7588 32.0032 63.7037 31.9102 64.5518C31.8257 65.3278 31.2 65.4974 30.5193 65.4211C27.3909 65.0691 24.2624 64.7172 21.1382 64.3355C19.908 64.1829 18.7158 64.0938 17.4602 64.361C14.8813 64.9122 12.1291 62.9658 11.5245 60.324C10.9411 57.7754 12.5899 55.0361 15.3463 54.2304C18.7538 53.2296 22.1993 52.3561 25.6322 51.4316C27.6699 50.8846 29.7076 50.3333 31.758 49.8202C32.5951 49.6124 33.0897 49.3029 33.0137 48.2767C32.908 46.8349 32.9587 45.3762 32.9967 43.9301C33.0179 43.1329 32.798 42.9675 32.0032 43.1965C29.4328 43.9386 26.8413 44.5959 24.2286 45.5627C25.5392 45.7451 26.854 45.9317 28.1688 46.1055C29.0397 46.22 29.9106 46.3218 30.7815 46.4151C31.3649 46.4745 32.0244 46.4957 31.9018 47.3226C31.8003 47.9968 31.2254 48.2004 30.6124 48.141C28.9678 47.9798 27.3317 47.7424 25.6872 47.6067C22.7828 47.365 19.9376 46.6483 16.9444 47.0554C14.2472 47.4201 11.9219 45.3804 11.4907 42.8234C11.0511 40.1985 12.7379 37.6415 15.5493 36.8612C20.8592 35.3897 26.1733 33.931 31.5171 32.591C32.7431 32.2857 33.1236 31.7853 33.0052 30.6064C32.8699 29.2792 33.5463 27.5363 32.7515 26.7052C31.8764 25.7934 30.1135 26.438 28.7437 26.4083C26.3171 26.3532 23.8904 26.4168 21.4637 26.3829C19.6543 26.3617 19.2104 25.8783 19.1893 24.0421C19.1766 22.9014 19.1174 21.7565 19.2062 20.6243C19.2823 19.6405 18.9356 19.42 17.9928 19.4327C13.761 19.4836 9.52487 19.4539 5.28878 19.4539C1.14146 19.4539 0.236744 18.5294 0.236744 14.3059C0.236744 13.8394 0.224061 13.373 0.240971 12.9065C0.321296 10.4979 1.59382 9.11973 4.0078 9.14941C5.27187 9.16638 5.49593 8.69568 5.39024 7.62283C5.3226 6.95707 5.3691 6.27858 5.41561 5.60434C5.48325 4.58238 6.03284 3.93782 7.07284 3.91661C8.19317 3.89541 8.74276 4.58238 8.84 5.66371C8.85691 5.87149 8.85691 6.07928 8.86113 6.28282C8.93723 9.09853 8.93723 9.09853 11.681 9.09853C20.0475 9.09853 28.414 9.07733 36.7763 9.12397C37.8374 9.12821 38.2306 8.89922 38.1545 7.77549C38.053 6.2277 38.1756 4.66719 38.1122 3.11516C38.0699 2.07623 38.3236 1.1942 39.0169 0.430908C39.5115 0.435149 40.0315 0.435149 40.5473 0.435149ZM38.9958 107.678C35.0725 107.678 31.145 107.708 27.2218 107.657C26.279 107.644 25.9958 107.881 26.0127 108.857C26.0719 112.792 26.0634 116.731 26.0169 120.667C26.0042 121.553 26.3382 122.002 27.1161 122.265C34.9457 124.937 42.7795 125.064 50.6345 122.354C51.6491 122.007 52.1184 121.544 52.0972 120.374C52.0169 116.596 52.0296 112.813 52.093 109.031C52.1099 107.983 51.8943 107.627 50.7697 107.648C46.8465 107.724 42.919 107.678 38.9958 107.678ZM38.8224 15.9894C50.2286 15.9894 61.6348 15.9512 73.041 16.0318C74.7532 16.0445 74.2754 15.0565 74.3389 14.1744C74.4065 13.1949 74.4868 12.5121 72.9987 12.5121C50.3428 12.5715 27.6826 12.5758 5.02666 12.5121C3.42016 12.5079 3.67382 13.3263 3.64 14.2889C3.60195 15.3321 3.5343 16.0403 5.06471 16.0275C16.3187 15.9512 27.5727 15.9894 38.8224 15.9894ZM52.0676 123.762C43.3037 126.879 34.7258 127.006 26.0423 123.754C26.0423 126.434 26.0211 128.902 26.055 131.37C26.0676 132.29 26.558 132.909 27.4797 133.159C28.1265 133.333 28.7564 133.554 29.3948 133.749C36.4845 135.928 43.5109 135.665 50.495 133.24C51.4927 132.892 52.0845 132.379 52.0719 131.259C52.0507 128.83 52.0676 126.404 52.0676 123.762ZM38.9958 104.23C47.413 104.23 55.8345 104.184 64.2517 104.273C65.7525 104.29 65.7779 103.637 65.7102 102.543C65.651 101.597 65.9597 100.74 64.3278 100.745C47.4384 100.817 30.5532 100.817 13.6637 100.745C12.0319 100.736 12.3447 101.601 12.2855 102.543C12.2137 103.637 12.2432 104.285 13.7441 104.268C22.1613 104.184 30.5785 104.23 38.9958 104.23ZM16.5724 94.6128C16.8302 94.545 17.1262 94.4644 17.4221 94.3838C20.6563 93.523 23.8904 92.6664 27.1245 91.7971C38.4589 88.7482 49.7932 85.6865 61.1317 82.6503C62.3366 82.328 63.3343 81.8616 63.1102 80.3859C62.9496 79.3257 61.8715 78.9653 60.3242 79.3512C60.1763 79.3894 60.0198 79.4063 59.8676 79.4445C48.3346 82.5443 36.7974 85.6484 25.2644 88.7524C22.2797 89.5539 19.3034 90.3723 16.3229 91.1822C15.2787 91.4664 14.7122 92.1533 14.8813 93.2304C15.0166 94.0955 15.6423 94.545 16.5724 94.6128ZM16.4624 43.5867C16.9275 43.4807 17.3841 43.3958 17.828 43.2771C28.7184 40.3469 39.6045 37.4167 50.495 34.4865C54.173 33.4942 57.8595 32.5274 61.5291 31.5054C63.1145 31.0644 63.681 29.576 62.679 28.6134C61.9941 27.9604 61.2163 28.0748 60.3665 28.3038C48.8842 31.4037 37.3935 34.478 25.907 37.5651C22.6771 38.4344 19.4472 39.3165 16.2172 40.1985C15.2237 40.4699 14.7418 41.1738 14.8644 42.1661C14.9785 43.0354 15.6085 43.4764 16.4624 43.5867ZM16.9444 60.7692C17.1135 60.7268 17.5109 60.6251 17.9083 60.5191C32.2146 56.6729 46.5252 52.8225 60.8315 48.9764C61.2289 48.8704 61.6348 48.7855 62.0153 48.6329C62.9031 48.2724 63.2963 47.5558 63.106 46.6483C62.92 45.779 62.2309 45.3974 61.36 45.4483C60.9034 45.4737 60.4468 45.5882 60.0029 45.7112C49.3197 48.5735 38.6364 51.4359 27.9532 54.3025C24.1271 55.3287 20.3011 56.3549 16.4751 57.3853C15.4098 57.6737 14.6826 58.3055 14.8728 59.4844C15.0335 60.4427 15.7691 60.8116 16.9444 60.7692ZM16.7415 78.1342C16.9232 78.0833 17.2699 77.99 17.6166 77.8967C29.1031 74.8096 40.5854 71.7267 52.0719 68.6396C55.2553 67.7831 58.4302 66.9095 61.6137 66.0699C62.5902 65.8112 63.1652 65.2345 63.1398 64.2168C63.1187 63.2839 62.4676 62.8259 61.6348 62.7368C61.1444 62.686 60.6159 62.8259 60.1255 62.9574C45.7558 66.8162 31.3902 70.6878 17.0247 74.5594C16.5808 74.6781 16.1115 74.7842 15.7184 75.0131C14.9616 75.4457 14.6572 76.1666 14.9236 76.9935C15.1645 77.7356 15.7184 78.1893 16.7415 78.1342ZM38.9197 22.8972C43.9294 22.8972 48.9392 22.8463 53.9447 22.9311C55.2299 22.9523 55.547 22.524 55.4117 21.3663C55.306 20.4334 55.8345 19.3775 54.025 19.3945C44.0097 19.4878 33.9902 19.4793 23.975 19.3945C22.3473 19.3818 22.639 20.2511 22.5798 21.2094C22.508 22.3162 22.5545 22.9735 24.0468 22.9396C29.0016 22.8251 33.9606 22.8972 38.9197 22.8972ZM29.4963 81.1449C29.4963 81.6114 29.5597 82.0863 29.4836 82.5401C29.2384 84.0158 29.8514 84.0836 31.0732 83.7359C35.4699 82.4807 39.8963 81.3273 44.3015 80.1145C45.6797 79.7328 47.599 79.8516 48.2712 78.8042C48.9349 77.7695 48.4234 76.0054 48.508 74.5636C48.5714 73.512 48.2543 73.389 47.2735 73.6604C42.2299 75.0768 37.161 76.4125 32.1005 77.7695C29.4963 78.4734 29.4963 78.4692 29.4963 81.1449ZM38.9958 97.331C41.7776 97.331 44.5593 97.3055 47.3411 97.348C48.1782 97.3607 48.5502 97.1699 48.5164 96.2412C48.453 94.4347 48.4699 92.624 48.5122 90.8176C48.5291 90.0373 48.3008 89.8083 47.5271 90.0161C41.7776 91.5766 36.0237 93.1286 30.2615 94.6552C29.0989 94.9648 29.5766 95.8595 29.5047 96.5507C29.4117 97.4625 30.0966 97.3268 30.6504 97.3268C33.4322 97.331 36.214 97.331 38.9958 97.331ZM39.0676 147.144C36.493 147.115 34.4088 149.12 34.3538 151.686C34.2946 154.302 36.4 156.461 39.0084 156.457C41.5535 156.452 43.6293 154.379 43.6462 151.826C43.6589 149.252 41.6296 147.174 39.0676 147.144ZM45.7431 138.227C41.2618 138.935 37.0511 138.922 32.6332 138.341C33.5844 140.461 34.4341 142.276 35.212 144.125C35.4699 144.736 35.7405 144.88 36.3662 144.664C38.1883 144.028 39.9977 144.066 41.7733 144.88C42.2299 145.088 42.6104 145.177 42.881 144.558C43.7645 142.539 44.6946 140.542 45.7431 138.227ZM41.5493 57.9281C40.0231 58.3437 38.6491 58.7508 37.2582 59.073C36.6494 59.213 36.4127 59.4674 36.4296 60.1035C36.4676 61.7022 36.4338 63.3051 36.4507 64.908C36.455 65.2175 36.2985 65.807 36.8777 65.6713C38.3743 65.3236 39.854 64.8741 41.3294 64.4373C41.6169 64.3525 41.5535 64.009 41.5535 63.763C41.5535 61.8548 41.5493 59.9508 41.5493 57.9281ZM36.438 45.2702C36.438 45.9953 36.4972 46.7247 36.4254 47.4413C36.3281 48.4039 36.7593 48.4251 37.5119 48.2597C41.5577 47.3607 41.5619 47.3734 41.5619 43.1669C41.5619 42.9591 41.5619 42.7513 41.5619 42.5477C41.5619 40.6395 41.5619 40.6395 39.6764 41.1356C36.438 41.9838 36.438 41.9838 36.438 45.2702ZM39.1015 26.3702C36.438 26.3702 36.438 26.3702 36.438 29.0374C36.438 29.5548 36.4338 30.0721 36.4423 30.5895C36.4507 30.916 36.493 31.2171 36.958 31.0856C38.3447 30.704 39.7356 30.3266 41.1307 29.9576C41.4393 29.8771 41.4901 29.6608 41.5535 29.3979C42.12 27.1335 41.545 26.3659 39.2579 26.3659C39.2029 26.3702 39.1522 26.3702 39.1015 26.3702ZM53.6065 26.5737C53.5811 26.5059 53.56 26.438 53.5346 26.3702C51.0107 26.3702 48.4868 26.4083 45.9671 26.3574C44.5678 26.3278 45.1216 27.3285 45.0244 27.9773C44.9398 28.5286 45.0751 28.906 45.7727 28.7152C48.3854 27.9943 50.998 27.2861 53.6065 26.5737ZM21.0959 97.331C22.453 97.331 23.6325 97.2759 24.7993 97.348C25.945 97.42 26.3086 97.0172 25.8816 95.8765C24.3258 96.3387 22.7236 96.5677 21.0959 97.331Z" fill="white"/>
</svg>
